<svg width="30" height="30" viewBox="0 0 30 30" fill="none" xmlns="http://www.w3.org/2000/svg">
<g filter="url(#filter0_b_901_619)">
<g filter="url(#filter1_b_901_619)">
<rect width="30" height="30" rx="15" fill="black" fill-opacity="0.1"/>
</g>
<path d="M23.8615 17.7882L23.2338 16.8177C23.2064 16.7743 23.1742 16.7356 23.1404 16.7002V12.77V12.7684C23.1404 11.7383 22.5675 10.8113 21.6453 10.3494L17.3561 8.20404C15.6115 7.33173 13.5289 7.33173 11.7843 8.20404L7.49517 10.3494C6.57296 10.8097 6 11.7367 6 12.7684C6 13.8 6.57296 14.7255 7.49517 15.1874L8.43827 15.6589V18.9743C8.43827 20.4969 9.52626 21.7909 11.0262 22.0516L12.2526 22.264C12.9704 22.3896 13.6947 22.4507 14.4173 22.4507C15.1399 22.4507 15.8642 22.3879 16.582 22.264L17.8084 22.0516C19.3084 21.7909 20.3963 20.4969 20.3963 18.9743V15.8086L21.642 15.1857C21.7129 15.1503 21.7821 15.1101 21.8497 15.0699V16.7018C21.8159 16.7388 21.7837 16.7775 21.7563 16.8193L21.1286 17.7898C20.9516 18.0634 20.9387 18.3998 21.0949 18.6863C21.251 18.9727 21.539 19.1449 21.8657 19.1449H23.1195C23.4462 19.1449 23.7343 18.9743 23.8904 18.6863C23.9628 18.5527 23.9998 18.4094 23.9998 18.2662C24.0031 18.0988 23.9564 17.9363 23.8615 17.7882ZM19.112 18.9727C19.112 19.8676 18.4715 20.6288 17.5911 20.7817L16.3647 20.9942C15.074 21.2179 13.7655 21.2179 12.4747 20.9942L11.2483 20.7817C10.3664 20.6288 9.72743 19.8676 9.72743 18.9727V16.3011L11.7859 17.3295C12.6582 17.7657 13.6142 17.9829 14.5718 17.9829C15.5294 17.9829 16.4854 17.7657 17.3577 17.3295L19.1136 16.4524V18.9727H19.112ZM21.0691 14.035L16.78 16.1804C15.3959 16.8724 13.7446 16.8724 12.3605 16.1804L8.07132 14.035C7.58044 13.7904 7.28916 13.3156 7.28916 12.7684C7.28916 12.2212 7.58205 11.7464 8.07132 11.5018L12.3605 9.358C13.7446 8.66595 15.3959 8.66595 16.78 9.358L21.0691 11.5018C21.5583 11.7464 21.8513 12.2196 21.8513 12.7684V12.77C21.8529 13.3156 21.56 13.7888 21.0691 14.035Z" fill="white"/>
</g>
<defs>
<filter id="filter0_b_901_619" x="-100" y="-100" width="230" height="230" filterUnits="userSpaceOnUse" color-interpolation-filters="sRGB">
<feFlood flood-opacity="0" result="BackgroundImageFix"/>
<feGaussianBlur in="BackgroundImageFix" stdDeviation="50"/>
<feComposite in2="SourceAlpha" operator="in" result="effect1_backgroundBlur_901_619"/>
<feBlend mode="normal" in="SourceGraphic" in2="effect1_backgroundBlur_901_619" result="shape"/>
</filter>
<filter id="filter1_b_901_619" x="-10" y="-10" width="50" height="50" filterUnits="userSpaceOnUse" color-interpolation-filters="sRGB">
<feFlood flood-opacity="0" result="BackgroundImageFix"/>
<feGaussianBlur in="BackgroundImageFix" stdDeviation="5"/>
<feComposite in2="SourceAlpha" operator="in" result="effect1_backgroundBlur_901_619"/>
<feBlend mode="normal" in="SourceGraphic" in2="effect1_backgroundBlur_901_619" result="shape"/>
</filter>
</defs>
</svg>
